<mxfile host="app.diagrams.net" agent="Mozilla/5.0 (Windows NT 10.0; Win64; x64) AppleWebKit/537.36 (KHTML, like Gecko) Chrome/130.0.0.0 Safari/537.36" version="24.8.3">
  <diagram name="Page-1" id="z4YNp8mFsGeZfgdsklga">
    <mxGraphModel dx="522" dy="557" grid="1" gridSize="10" guides="1" tooltips="1" connect="1" arrows="1" fold="1" page="1" pageScale="1" pageWidth="850" pageHeight="1100" math="0" shadow="0">
      <root>
        <mxCell id="0" />
        <mxCell id="1" parent="0" />
        <mxCell id="n9Z0LxK_dFKvZWLNPovm-1" value="" style="rounded=0;whiteSpace=wrap;html=1;fillColor=#dae8fc;gradientColor=#7ea6e0;strokeColor=#6c8ebf;" vertex="1" parent="1">
          <mxGeometry x="60" y="40" width="560" height="420" as="geometry" />
        </mxCell>
        <mxCell id="n9Z0LxK_dFKvZWLNPovm-2" style="edgeStyle=orthogonalEdgeStyle;rounded=0;orthogonalLoop=1;jettySize=auto;html=1;" edge="1" parent="1" source="n9Z0LxK_dFKvZWLNPovm-3" target="n9Z0LxK_dFKvZWLNPovm-5">
          <mxGeometry relative="1" as="geometry" />
        </mxCell>
        <mxCell id="n9Z0LxK_dFKvZWLNPovm-3" value="Amazon EKS" style="sketch=0;outlineConnect=0;fontColor=#232F3E;gradientColor=none;strokeColor=#ffffff;fillColor=#232F3E;dashed=0;verticalLabelPosition=middle;verticalAlign=bottom;align=center;html=1;whiteSpace=wrap;fontSize=10;fontStyle=1;spacing=3;shape=mxgraph.aws4.productIcon;prIcon=mxgraph.aws4.eks;" vertex="1" parent="1">
          <mxGeometry x="150" y="149" width="80" height="100" as="geometry" />
        </mxCell>
        <mxCell id="n9Z0LxK_dFKvZWLNPovm-4" value="" style="sketch=0;points=[[0,0,0],[0.25,0,0],[0.5,0,0],[0.75,0,0],[1,0,0],[0,1,0],[0.25,1,0],[0.5,1,0],[0.75,1,0],[1,1,0],[0,0.25,0],[0,0.5,0],[0,0.75,0],[1,0.25,0],[1,0.5,0],[1,0.75,0]];outlineConnect=0;fontColor=#232F3E;fillColor=#ED7100;strokeColor=#ffffff;dashed=0;verticalLabelPosition=bottom;verticalAlign=top;align=center;html=1;fontSize=12;fontStyle=0;aspect=fixed;shape=mxgraph.aws4.resourceIcon;resIcon=mxgraph.aws4.ec2;" vertex="1" parent="1">
          <mxGeometry x="380" y="50" width="78" height="78" as="geometry" />
        </mxCell>
        <mxCell id="n9Z0LxK_dFKvZWLNPovm-5" value="" style="sketch=0;points=[[0,0,0],[0.25,0,0],[0.5,0,0],[0.75,0,0],[1,0,0],[0,1,0],[0.25,1,0],[0.5,1,0],[0.75,1,0],[1,1,0],[0,0.25,0],[0,0.5,0],[0,0.75,0],[1,0.25,0],[1,0.5,0],[1,0.75,0]];outlineConnect=0;fontColor=#232F3E;fillColor=#ED7100;strokeColor=#ffffff;dashed=0;verticalLabelPosition=bottom;verticalAlign=top;align=center;html=1;fontSize=12;fontStyle=0;aspect=fixed;shape=mxgraph.aws4.resourceIcon;resIcon=mxgraph.aws4.ec2;" vertex="1" parent="1">
          <mxGeometry x="380" y="160" width="78" height="78" as="geometry" />
        </mxCell>
        <mxCell id="n9Z0LxK_dFKvZWLNPovm-6" value="" style="sketch=0;points=[[0,0,0],[0.25,0,0],[0.5,0,0],[0.75,0,0],[1,0,0],[0,1,0],[0.25,1,0],[0.5,1,0],[0.75,1,0],[1,1,0],[0,0.25,0],[0,0.5,0],[0,0.75,0],[1,0.25,0],[1,0.5,0],[1,0.75,0]];outlineConnect=0;fontColor=#232F3E;fillColor=#ED7100;strokeColor=#ffffff;dashed=0;verticalLabelPosition=bottom;verticalAlign=top;align=center;html=1;fontSize=12;fontStyle=0;aspect=fixed;shape=mxgraph.aws4.resourceIcon;resIcon=mxgraph.aws4.ec2;" vertex="1" parent="1">
          <mxGeometry x="380" y="280" width="78" height="78" as="geometry" />
        </mxCell>
        <mxCell id="n9Z0LxK_dFKvZWLNPovm-7" style="edgeStyle=orthogonalEdgeStyle;rounded=0;orthogonalLoop=1;jettySize=auto;html=1;entryX=0;entryY=0.5;entryDx=0;entryDy=0;entryPerimeter=0;" edge="1" parent="1" source="n9Z0LxK_dFKvZWLNPovm-3" target="n9Z0LxK_dFKvZWLNPovm-4">
          <mxGeometry relative="1" as="geometry" />
        </mxCell>
        <mxCell id="n9Z0LxK_dFKvZWLNPovm-8" style="edgeStyle=orthogonalEdgeStyle;rounded=0;orthogonalLoop=1;jettySize=auto;html=1;entryX=0;entryY=0.5;entryDx=0;entryDy=0;entryPerimeter=0;" edge="1" parent="1" source="n9Z0LxK_dFKvZWLNPovm-3" target="n9Z0LxK_dFKvZWLNPovm-6">
          <mxGeometry relative="1" as="geometry" />
        </mxCell>
        <mxCell id="n9Z0LxK_dFKvZWLNPovm-9" style="edgeStyle=orthogonalEdgeStyle;rounded=0;orthogonalLoop=1;jettySize=auto;html=1;entryX=0.387;entryY=0.007;entryDx=0;entryDy=0;entryPerimeter=0;" edge="1" parent="1" source="n9Z0LxK_dFKvZWLNPovm-1">
          <mxGeometry relative="1" as="geometry">
            <mxPoint x="340.30999999999995" y="600.98" as="targetPoint" />
          </mxGeometry>
        </mxCell>
        <mxCell id="n9Z0LxK_dFKvZWLNPovm-10" value="&lt;b&gt;Volume&lt;/b&gt;" style="shape=cylinder3;whiteSpace=wrap;html=1;boundedLbl=1;backgroundOutline=1;size=15;fillColor=#d5e8d4;gradientColor=#97d077;strokeColor=#82b366;" vertex="1" parent="1">
          <mxGeometry x="285" y="600" width="110" height="150" as="geometry" />
        </mxCell>
        <mxCell id="n9Z0LxK_dFKvZWLNPovm-11" style="edgeStyle=orthogonalEdgeStyle;rounded=0;orthogonalLoop=1;jettySize=auto;html=1;" edge="1" parent="1" source="n9Z0LxK_dFKvZWLNPovm-12">
          <mxGeometry relative="1" as="geometry">
            <mxPoint x="340" y="590" as="targetPoint" />
          </mxGeometry>
        </mxCell>
        <mxCell id="n9Z0LxK_dFKvZWLNPovm-12" value="" style="aspect=fixed;sketch=0;html=1;dashed=0;whitespace=wrap;verticalLabelPosition=bottom;verticalAlign=top;fillColor=#2875E2;strokeColor=#ffffff;points=[[0.005,0.63,0],[0.1,0.2,0],[0.9,0.2,0],[0.5,0,0],[0.995,0.63,0],[0.72,0.99,0],[0.5,1,0],[0.28,0.99,0]];shape=mxgraph.kubernetes.icon2;prIcon=pv" vertex="1" parent="1">
          <mxGeometry x="308.75" y="358" width="62.5" height="60" as="geometry" />
        </mxCell>
        <mxCell id="n9Z0LxK_dFKvZWLNPovm-13" value="" style="aspect=fixed;sketch=0;html=1;dashed=0;whitespace=wrap;verticalLabelPosition=bottom;verticalAlign=top;fillColor=#2875E2;strokeColor=#ffffff;points=[[0.005,0.63,0],[0.1,0.2,0],[0.9,0.2,0],[0.5,0,0],[0.995,0.63,0],[0.72,0.99,0],[0.5,1,0],[0.28,0.99,0]];shape=mxgraph.kubernetes.icon2;prIcon=pvc" vertex="1" parent="1">
          <mxGeometry x="190" y="360" width="62.5" height="60" as="geometry" />
        </mxCell>
        <mxCell id="n9Z0LxK_dFKvZWLNPovm-14" style="edgeStyle=orthogonalEdgeStyle;rounded=0;orthogonalLoop=1;jettySize=auto;html=1;entryX=0.005;entryY=0.63;entryDx=0;entryDy=0;entryPerimeter=0;" edge="1" parent="1" source="n9Z0LxK_dFKvZWLNPovm-13" target="n9Z0LxK_dFKvZWLNPovm-12">
          <mxGeometry relative="1" as="geometry" />
        </mxCell>
        <mxCell id="n9Z0LxK_dFKvZWLNPovm-15" value="" style="aspect=fixed;sketch=0;html=1;dashed=0;whitespace=wrap;verticalLabelPosition=bottom;verticalAlign=top;fillColor=#2875E2;strokeColor=#ffffff;points=[[0.005,0.63,0],[0.1,0.2,0],[0.9,0.2,0],[0.5,0,0],[0.995,0.63,0],[0.72,0.99,0],[0.5,1,0],[0.28,0.99,0]];shape=mxgraph.kubernetes.icon2;prIcon=pod" vertex="1" parent="1">
          <mxGeometry x="80" y="358" width="64.58" height="62" as="geometry" />
        </mxCell>
        <mxCell id="n9Z0LxK_dFKvZWLNPovm-16" style="edgeStyle=orthogonalEdgeStyle;rounded=0;orthogonalLoop=1;jettySize=auto;html=1;entryX=0.005;entryY=0.63;entryDx=0;entryDy=0;entryPerimeter=0;" edge="1" parent="1" source="n9Z0LxK_dFKvZWLNPovm-15" target="n9Z0LxK_dFKvZWLNPovm-13">
          <mxGeometry relative="1" as="geometry">
            <Array as="points">
              <mxPoint x="167" y="389" />
              <mxPoint x="167" y="390" />
              <mxPoint x="190" y="390" />
            </Array>
          </mxGeometry>
        </mxCell>
        <mxCell id="n9Z0LxK_dFKvZWLNPovm-17" value="pv" style="text;html=1;align=center;verticalAlign=middle;whiteSpace=wrap;rounded=0;" vertex="1" parent="1">
          <mxGeometry x="370" y="430" width="25" height="10" as="geometry" />
        </mxCell>
        <mxCell id="n9Z0LxK_dFKvZWLNPovm-18" value="pvc" style="text;html=1;align=center;verticalAlign=middle;whiteSpace=wrap;rounded=0;" vertex="1" parent="1">
          <mxGeometry x="180" y="430" width="70" height="10" as="geometry" />
        </mxCell>
        <mxCell id="n9Z0LxK_dFKvZWLNPovm-19" value="pod" style="text;html=1;align=center;verticalAlign=middle;whiteSpace=wrap;rounded=0;" vertex="1" parent="1">
          <mxGeometry x="80" y="430" width="70" height="10" as="geometry" />
        </mxCell>
      </root>
    </mxGraphModel>
  </diagram>
</mxfile>
